<svg xmlns="http://www.w3.org/2000/svg" viewBox="0 0 858.64 751.87"><defs><style>.cls-1{fill:#402;}</style></defs><title>Fichier 1</title><g id="Calque_2" data-name="Calque 2"><g id="Calque_1-2" data-name="Calque 1"><path class="cls-1" d="M844.55,421.87c-46.6,10.2-84.3-20.5-101.3-37.9-21.1-129.5-120.6-232.6-248.2-259-4-7.3-96.3-173.5-82.6-110.9,14,64-49,111.1-49,111.1h1.1c-124.5,26.3-222.1,125.7-245.7,251.2-30.8,17.3-161.4,91.6-104.8,79.2,50.9-11.1,91.1,26.4,105.4,42.3,27.7,138.7,145.9,244.7,290.4,254V498.67h-80.1v-120h199.1v120H451v253.1c143.6-9.2,261.2-113.9,289.8-251.3C773.25,482.27,900.65,409.57,844.55,421.87Z"/></g></g></svg>